<?xml version="1.0" encoding="iso-8859-1"?>
<!-- Generator: Adobe Illustrator 19.0.0, SVG Export Plug-In . SVG Version: 6.00 Build 0)  -->
<svg version="1.1" id="Capa_1" xmlns="http://www.w3.org/2000/svg" xmlns:xlink="http://www.w3.org/1999/xlink" x="0px" y="0px"
	 viewBox="0 0 511.853 511.853" style="enable-background:new 0 0 511.853 511.853;" xml:space="preserve">
<g>
	<path style="fill:#F7B64C;" d="M357.26,216.533c0,0,54.4,55.467,81.067,77.867c35.2,30.933-5.333,105.6-57.6,43.733
		c-48-56.533-53.333-103.467-53.333-103.467L357.26,216.533z"/>
	<path style="fill:#F7B64C;" d="M415.926,469.333c-102.4,26.667-209.067,25.6-320,0l0,0c11.733-77.867,37.333-153.6,73.6-222.933
		l10.667-20.267l75.733-9.6l75.733,9.6l10.667,20.267C378.593,315.733,404.193,391.467,415.926,469.333L415.926,469.333z"/>
	<path style="fill:#F7B64C;" d="M154.593,216.533c0,0-54.4,55.467-81.067,77.867c-35.2,30.933,5.333,105.6,57.6,43.733
		c48-56.533,53.333-103.467,53.333-103.467L154.593,216.533z"/>
</g>
<ellipse style="fill:#FFFFFF;" cx="252.726" cy="295.467" rx="83.2" ry="105.6"/>
<path style="fill:#FFD15C;" d="M443.66,428.8c4.267,39.467-26.667,76.8-70.4,82.133c-43.733,6.4-82.133-21.333-87.467-60.8
	c-4.267-39.467,26.667-76.8,70.4-82.133C399.926,361.6,439.393,389.333,443.66,428.8z"/>
<g>
	<path style="fill:#415A6B;" d="M406.326,460.8c2.133,19.2-12.8,37.333-34.133,40.533s-40.533-10.667-42.667-29.867
		c-2.133-19.2,12.8-37.333,34.133-40.533C384.993,427.733,404.193,441.6,406.326,460.8z"/>
	<path style="fill:#415A6B;" d="M333.793,411.733c3.2,8.533,2.133,18.133-2.133,20.267c-4.267,2.133-11.733-3.2-14.933-11.733
		c-3.2-8.533-2.133-18.133,2.133-20.267C323.126,397.867,330.593,403.2,333.793,411.733z"/>
	<path style="fill:#415A6B;" d="M408.46,412.8c-4.267,8.533-11.733,12.8-16,10.667c-4.267-3.2-5.333-11.733,0-20.267
		c4.267-8.533,11.733-12.8,16-10.667C412.726,394.667,412.726,404.267,408.46,412.8z"/>
	<path style="fill:#415A6B;" d="M370.06,400c1.067,9.6-2.133,18.133-7.467,19.2c-5.333,1.067-10.667-6.4-11.733-16
		c-1.067-9.6,2.133-18.133,7.467-19.2C363.66,382.933,368.993,390.4,370.06,400z"/>
</g>
<path style="fill:#FFD15C;" d="M68.193,428.8c-4.267,39.467,26.667,75.733,70.4,82.133s82.133-21.333,87.467-60.8
	c4.267-39.467-26.667-76.8-70.4-82.133C111.926,362.667,72.46,389.333,68.193,428.8z"/>
<g>
	<path style="fill:#415A6B;" d="M105.526,460.8c-2.133,19.2,12.8,37.333,34.133,40.533s40.533-10.667,42.667-29.867
		c2.133-19.2-12.8-37.333-34.133-40.533S107.66,441.6,105.526,460.8z"/>
	<path style="fill:#415A6B;" d="M178.06,411.733c-3.2,8.533-2.133,18.133,2.133,20.267c5.333,2.133,11.733-3.2,14.933-11.733
		c3.2-8.533,2.133-18.133-2.133-20.267C188.726,397.867,181.26,403.2,178.06,411.733z"/>
	<path style="fill:#415A6B;" d="M103.393,412.8c4.267,8.533,11.733,12.8,16,10.667c4.267-3.2,5.333-11.733,0-20.267
		c-4.267-8.533-11.733-12.8-16-10.667C99.126,394.667,99.126,404.267,103.393,412.8z"/>
	<path style="fill:#415A6B;" d="M141.793,400c-1.067,9.6,2.133,18.133,7.467,19.2s10.667-6.4,11.733-16
		c1.067-9.6-2.133-18.133-7.467-19.2C148.193,382.933,142.86,390.4,141.793,400z"/>
</g>
<g>
	<circle style="fill:#F7B64C;" cx="149.26" cy="59.733" r="59.733"/>
	<circle style="fill:#F7B64C;" cx="364.726" cy="59.733" r="59.733"/>
</g>
<path style="fill:#FFD15C;" d="M229.26,265.6h52.267c62.933,0,115.2-50.133,116.267-114.133c0-3.2,0-7.467,0-10.667
	c-4.267-70.4-60.8-128-131.2-133.333c-84.267-6.4-153.6,59.733-153.6,141.867c0,2.133,0,3.2,0,5.333
	C115.126,217.6,167.393,265.6,229.26,265.6z"/>
<circle style="fill:#415A6B;" cx="320.993" cy="142.933" r="16"/>
<circle style="fill:#344A5E;" cx="318.86" cy="141.867" r="7.467"/>
<circle style="fill:#FFFFFF;" cx="314.593" cy="138.667" r="2.133"/>
<circle style="fill:#415A6B;" cx="190.86" cy="142.933" r="16"/>
<circle style="fill:#344A5E;" cx="192.993" cy="141.867" r="7.467"/>
<g>
	<circle style="fill:#FFFFFF;" cx="197.26" cy="138.667" r="2.133"/>
	<ellipse style="fill:#FFFFFF;" cx="255.926" cy="196.267" rx="66.133" ry="58.667"/>
</g>
<g>
	<path style="fill:#415A6B;" d="M207.926,209.067c0,0,0,0,1.067,1.067c0,1.067,1.067,2.133,2.133,3.2
		c1.067,1.067,2.133,3.2,3.2,5.333c1.067,2.133,3.2,3.2,5.333,5.333c1.067,1.067,2.133,2.133,3.2,3.2
		c1.067,1.067,2.133,2.133,4.267,3.2c3.2,2.133,5.333,3.2,8.533,4.267c3.2,1.067,6.4,2.133,10.667,3.2
		c3.2,1.067,7.467,1.067,10.667,1.067c2.133,0,4.267,0,5.333,0c2.133,0,3.2,0,5.333-1.067c3.2-1.067,7.467-2.133,10.667-3.2
		c3.2-1.067,6.4-3.2,8.533-4.267c1.067-1.067,2.133-2.133,4.267-3.2c1.067-1.067,2.133-2.133,3.2-3.2
		c2.133-2.133,4.267-4.267,5.333-5.333c1.067-2.133,2.133-3.2,3.2-5.333c1.067-1.067,1.067-2.133,2.133-3.2
		c0-1.067,1.067-1.067,1.067-1.067s0,0,0,1.067s0,2.133-1.067,4.267c-1.067,2.133-1.067,3.2-2.133,5.333
		c-1.067,2.133-3.2,4.267-4.267,6.4c-2.133,2.133-4.267,4.267-7.467,6.4c-3.2,2.133-5.333,4.267-9.6,5.333
		c-3.2,2.133-7.467,3.2-10.667,4.267c-2.133,0-4.267,1.067-6.4,1.067s-4.267,0-6.4,0c-4.267,0-8.533,0-11.733-1.067
		c-4.267-1.067-7.467-2.133-10.667-4.267c-3.2-1.067-6.4-3.2-9.6-5.333c-3.2-2.133-5.333-4.267-7.467-6.4
		c-2.133-2.133-3.2-4.267-4.267-6.4c-1.067-2.133-2.133-4.267-2.133-5.333c-1.067-1.067-1.067-3.2-1.067-4.267
		C207.926,210.133,207.926,209.067,207.926,209.067z"/>
	<path style="fill:#415A6B;" d="M278.326,166.4c7.467,10.667-3.2,20.267-11.733,26.667c-6.4,4.267-14.933,4.267-21.333,0
		s-13.867-11.733-13.867-19.2c0-16,14.933-13.867,32-13.867C268.726,160,274.06,162.133,278.326,166.4z"/>
	<rect x="252.726" y="174.933" style="fill:#415A6B;" width="5.333" height="67.2"/>
</g>
<g>
</g>
<g>
</g>
<g>
</g>
<g>
</g>
<g>
</g>
<g>
</g>
<g>
</g>
<g>
</g>
<g>
</g>
<g>
</g>
<g>
</g>
<g>
</g>
<g>
</g>
<g>
</g>
<g>
</g>
</svg>
